<svg width="533" height="426" viewBox="0 0 533 426" fill="none" xmlns="http://www.w3.org/2000/svg" style="width: 100%; height: 100%;">
<g clip-path="url(#clip0_35_1768)">
<path d="M21.523 243.755C16.888 233.225 -6.04903 191.766 2.73497 180.445C5.77897 176.522 11.223 177.199 15.486 179.02C26.835 183.869 35.843 194.321 42.656 205.947C49.469 217.573 55.333 231.623 60.11 244.352C47.864 244.352 47.52 243.755 21.523 243.755Z" fill="#55D087" stroke="#010101" stroke-width="1.5" stroke-linecap="round" stroke-linejoin="round"></path>
<path d="M8.19995 178.343C16.713 200.401 29.6709 222.289 39.0169 243.885" stroke="#010101" stroke-width="1.5" stroke-linecap="round" stroke-linejoin="round"></path>
<path d="M29.061 188.145C25.75 192.84 22.439 197.535 19.128 202.23" stroke="#010101" stroke-width="1.5" stroke-linecap="round" stroke-linejoin="round"></path>
<path d="M28.081 221.445C21.65 220.094 15.236 218.631 8.84198 217.057" stroke="#010101" stroke-width="1.5" stroke-linecap="round" stroke-linejoin="round"></path>
<path d="M55.724 244.038C48.139 221.748 45.099 197.381 46.925 173.5C47.292 168.702 47.951 163.647 50.578 159.926C53.958 155.138 60.009 153.741 65.169 155.268C70.329 156.796 74.706 160.78 78.407 165.236C88.278 177.122 94.229 192.606 99.457 207.977C103.513 219.901 107.254 231.969 110.86 243.873C91.832 244.668 72.805 245.464 55.724 244.038Z" fill="#55D087" stroke="#010101" stroke-width="1.5" stroke-linecap="round" stroke-linejoin="round"></path>
<path d="M60.111 154.713C66.577 186.54 74.962 214.905 80.944 244.352" stroke="#010101" stroke-width="1.5" stroke-linecap="round" stroke-linejoin="round"></path>
<path d="M91.707 186.853C85.883 196.395 80.039 205.921 74.175 215.429" stroke="#010101" stroke-width="1.5" stroke-linecap="round" stroke-linejoin="round"></path>
<path d="M69.484 196.498C62.335 191.032 54.918 186.043 47.28 181.562" stroke="#010101" stroke-width="1.5" stroke-linecap="round" stroke-linejoin="round"></path>
<path d="M76.5629 224.351C67.1629 217.268 57.5009 210.657 47.6119 204.542" stroke="#010101" stroke-width="1.5" stroke-linecap="round" stroke-linejoin="round"></path>
<path d="M409.07 83.722L414.64 20.986L222.899 20.2L220.264 85.014L409.07 83.722Z" fill="#E3E3FF" stroke="#010101" stroke-width="1.5" stroke-linecap="round" stroke-linejoin="round"></path>
<path d="M527.991 193.714L531.791 124.446L390.725 124.387L387.56 194.506L527.991 193.714Z" fill="white" stroke="#010101" stroke-width="1.5" stroke-linecap="round" stroke-linejoin="round"></path>
<path d="M415.278 377.37C420.151 380.395 432.837 384.484 432.837 384.484C432.837 384.484 447.581 377.286 457.65 372.636C458.674 372.163 459.733 373.197 459.291 374.234C452.129 391.074 445.355 408.495 438.182 425.179C427.023 422.368 413.413 414.658 402.254 411.847C400.358 411.369 406.659 389.351 415.278 377.37Z" fill="#010101" stroke="#010101" stroke-width="1.5" stroke-linecap="round" stroke-linejoin="round"></path>
<path d="M407.067 425.151C415.902 407.987 423.78 390.332 430.655 372.294C414.557 366.135 399.366 360.203 384.847 352.932C378.45 329.091 373.439 304.643 368.428 280.195C365.829 267.515 363.134 254.578 356.617 243.395C350.1 232.212 338.963 222.891 326.048 222.028C316.283 221.376 306.872 225.52 298.227 230.107C280.449 239.542 263.889 251.268 249.086 264.905C215.939 281.444 181.842 296.591 146.932 311.418C154.128 324.122 166.008 333.648 178.924 340.456C191.84 347.264 205.884 351.601 219.784 356.069C283.124 376.43 345.341 400.283 407.068 425.152L407.067 425.151Z" fill="#0088CC" stroke="#010101" stroke-width="1.5" stroke-linecap="round" stroke-linejoin="round"></path>
<path d="M323.595 331.038C319.365 314.394 315.849 299.528 313.06 282.582C296.776 289.904 282.085 298.54 267.057 310.885C275.917 314.283 306.074 324.319 323.595 331.038Z" fill="white" stroke="#010101" stroke-width="1.5" stroke-linecap="round" stroke-linejoin="round"></path>
<path d="M323.179 330.53C344.402 339.13 365.907 347.032 387.648 354.22" stroke="#010101" stroke-width="1.5" stroke-linecap="round" stroke-linejoin="round"></path>
<path d="M249.01 305.014C254.385 306.827 261.682 309.072 267.057 310.885" stroke="#010101" stroke-width="1.5" stroke-linecap="round" stroke-linejoin="round"></path>
<path d="M171.461 95.996C170.426 93.032 169.377 90.04 167.714 87.377C166.051 84.714 163.696 82.371 160.742 81.308C158.841 80.624 156.784 80.497 154.765 80.554C144.703 80.836 126.262 86.978 121.215 95.474C120.1 97.35 119.426 99.462 119.006 101.604C118.453 104.428 118.33 107.335 118.643 110.195C119.352 116.668 121.829 122.931 124.951 128.646C126.281 131.081 128.961 132.898 131.475 134.07C133.427 134.981 135.675 134.912 137.828 134.825C139.468 134.759 141.157 134.681 142.644 133.987C144.743 133.007 146.115 130.958 147.237 128.931C150.953 122.212 153.117 114.661 157.408 108.294C161.222 102.636 166.57 98.155 171.462 95.996H171.461Z" fill="#010101" stroke="#010101" stroke-width="1.5" stroke-linecap="round" stroke-linejoin="round"></path>
<path d="M136.944 139.257C139.491 149.355 142.037 159.453 144.844 169.106C148.623 170.587 152.839 170.721 156.834 170.001C160.829 169.281 164.633 167.742 168.281 165.963C170.384 164.937 172.532 163.753 174.163 161.41C172.17 158.869 171.729 155.493 170.98 152.352C170.276 149.401 169.242 146.529 167.754 143.27C172.101 141.248 176.781 138.905 178.806 134.559C180.354 131.237 180.025 127.374 179.509 123.745C178.368 115.704 176.471 107.771 173.853 100.084C173.141 97.995 172.36 95.891 171.052 94.114C166.429 87.831 161.314 89.113 158.827 91.312C157.388 92.585 155.622 93.485 153.746 93.902C150.949 94.524 147.81 94.136 145.425 95.725C143.479 97.022 142.51 99.35 141.882 101.602C139.866 108.823 140.277 116.569 142.105 123.84C142.454 125.229 142.801 126.869 141.868 127.956C140.687 129.331 138.863 129.685 137.504 128.487C136.145 127.289 134.658 124.645 133.027 123.855C130.539 122.651 127.343 124.088 125.969 126.486C124.595 128.884 124.747 131.904 125.628 134.523C126.436 136.924 127.963 139.249 130.304 140.215C132.645 141.181 135.829 140.262 136.944 139.257Z" fill="white" stroke="#010101" stroke-width="1.5" stroke-linecap="round" stroke-linejoin="round"></path>
<path d="M155.712 143.731C157.956 143.623 160.201 143.867 162.447 143.882C164.693 143.897 166.998 143.667 169.015 142.679" stroke="#010101" stroke-width="1.5" stroke-linecap="round" stroke-linejoin="round"></path>
<path d="M166.112 108.188C167.792 111.756 169.484 115.346 171.772 118.559C171.858 118.679 171.948 118.811 171.943 118.959C171.938 119.111 171.834 119.239 171.732 119.352C170.406 120.816 168.521 121.76 166.554 121.944" stroke="#010101" stroke-width="1.5" stroke-linecap="round" stroke-linejoin="round"></path>
<path d="M344.288 116.7C349.394 106.969 353.763 98.898 358.869 89.167C359.653 87.673 361.604 84.853 363.348 86.057C364.59 86.914 364.291 91.522 359.726 98.741C364.116 90.97 366.275 87.574 370.666 79.804C371.221 78.822 371.961 77.719 372.998 77.721C374.06 77.723 374.808 78.994 374.783 80.172C374.758 81.35 374.187 82.428 373.634 83.444C370.458 89.273 370.736 89.955 367.56 95.784C372.417 98.425 378.597 104.273 376.603 107.181C368.969 118.313 370.639 114.349 363.005 125.481" fill="white"></path>
<path d="M344.288 116.7C349.394 106.969 353.763 98.898 358.869 89.167C359.653 87.673 361.604 84.853 363.348 86.057C364.59 86.914 364.291 91.522 359.726 98.741C364.116 90.97 366.275 87.574 370.666 79.804C371.221 78.822 371.961 77.719 372.998 77.721C374.06 77.723 374.808 78.994 374.783 80.172C374.758 81.35 374.187 82.428 373.634 83.444C370.458 89.273 370.736 89.955 367.56 95.784C372.417 98.425 378.597 104.273 376.603 107.181C368.969 118.313 370.639 114.349 363.005 125.481" stroke="#010101" stroke-width="1.5" stroke-linecap="round" stroke-linejoin="round"></path>
<path d="M359.725 98.741C361.258 100.281 362.669 101.981 363.592 103.948C364.515 105.915 364.922 108.179 364.408 110.29" stroke="#010101" stroke-width="1.5" stroke-linecap="round" stroke-linejoin="round"></path>
<path d="M143.465 167.04C127.134 171.149 109.482 176.113 99.471 189.654C95.004 195.696 92.5 202.947 90.451 210.177C85.236 228.576 82.546 247.689 82.479 266.812C82.442 277.428 83.759 289.23 91.728 296.244C98.284 302.014 107.994 303.011 116.483 300.961C124.972 298.911 132.551 294.229 140.391 289.665C142.718 296.764 145.045 303.863 147.083 311.413C169.113 302.046 191.143 292.678 213.173 283.311C225.002 278.281 236.872 273.231 248.047 266.074C239.33 242.182 230.335 218.392 220.853 195.523C252.031 205.686 292.632 210.053 307.297 200.014C311.819 196.919 317.143 191.488 320.876 187.477C338.109 168.96 357.903 146.274 371.349 124.866C362.14 119.389 352.967 115.139 341.281 108.189C326.923 126.328 309.893 148.007 292.04 164.786C267.128 160.212 243.559 155.346 218.432 152.154C211.954 151.331 205.406 150.553 198.908 151.201C190.74 152.015 183.226 153.451 175.597 155.924C174.224 156.369 161.425 164.281 160.682 164.468C159.146 164.854 148.83 165.691 143.465 167.041V167.04Z" fill="#010101" stroke="#010101" stroke-width="1.5" stroke-linecap="round" stroke-linejoin="round"></path>
<path d="M161.429 235.75C165.608 246.498 169.995 257.165 174.587 267.743" stroke="white" stroke-width="1.5" stroke-linecap="round" stroke-linejoin="round"></path>
<path d="M335.646 116.507C345.221 122.969 355.301 127.921 364.979 134.452" stroke="white" stroke-width="1.5" stroke-linecap="round" stroke-linejoin="round"></path>
<path d="M161.262 163.624C164.71 158.769 168.272 153.995 171.945 149.308C174.242 151.109 176.625 152.798 179.336 154.192C177.733 159.205 176.13 164.219 174.527 169.232C172.506 167.968 163.735 164.8 161.262 163.624Z" fill="#010101" stroke="#010101" stroke-width="1.5" stroke-linecap="round" stroke-linejoin="round"></path>
<path d="M139.507 159.655C146.691 161.688 154.043 163.129 161.629 164.103C160.257 167.447 159.216 170.927 158.527 174.475C151.1 172.888 143.769 170.854 136.587 168.388C137.56 165.671 138.531 162.953 139.507 159.655Z" fill="#010101" stroke="#010101" stroke-width="1.5" stroke-linecap="round" stroke-linejoin="round"></path>
<path d="M161.262 163.624C176.409 206.001 191.761 244.891 206.411 285.879" stroke="white" stroke-width="1.5" stroke-linecap="round" stroke-linejoin="round"></path>
<path d="M133.009 213.502C149.738 205.713 166.854 198.757 184.273 192.667C185.176 192.351 186.193 192.714 186.666 193.545C188.615 196.968 190.203 200.596 191.394 204.351C191.708 205.34 191.177 206.398 190.214 206.783C189.031 207.256 187.849 207.744 186.672 208.283C193.284 226.24 199.896 244.197 205.93 261.879C190.523 269.138 175.116 276.397 160.183 283.462C154.828 270.355 135.381 223.786 133.009 213.503V213.502Z" fill="white" stroke="#010101" stroke-width="1.5" stroke-linecap="round" stroke-linejoin="round"></path>
<path d="M154.821 228.972C153.58 226.36 152.464 223.689 151.972 220.864C159.121 216.23 166.917 212.597 175.063 210.103C175.315 210.026 175.592 209.951 175.835 210.053C176.116 210.171 176.254 210.481 176.366 210.764C177.445 213.489 178.524 216.214 179.603 218.938C171.303 222.334 162.994 225.709 154.821 228.972Z" stroke="#010101" stroke-width="1.5" stroke-linecap="round" stroke-linejoin="round"></path>
<path d="M157.53 223.806C158.153 222.34 158.977 220.959 159.971 219.713C160.184 219.446 160.413 219.179 160.713 219.015C161.089 218.81 161.538 218.791 161.965 218.822C163.139 218.908 164.289 219.339 165.461 219.241C167.912 219.037 169.709 216.628 172.144 216.28" stroke="#010101" stroke-width="1.5" stroke-linecap="round" stroke-linejoin="round"></path>
<path d="M180.396 194.038C182.517 199.151 185.484 204.437 186.915 208.943" stroke="#010101" stroke-width="1.5" stroke-linecap="round" stroke-linejoin="round"></path>
<path d="M177.406 254.48C181.818 253.194 186.23 251.909 190.642 250.623C193.67 249.741 196.832 248.782 199.076 246.565C199.788 245.862 200.416 244.96 200.384 243.96C200.351 242.96 199.367 241.976 198.413 242.277C199.47 241.683 200.007 240.298 199.626 239.147C199.245 237.996 197.988 237.205 196.785 237.359C197.855 236.907 198.434 235.541 198.015 234.458C197.596 233.375 196.249 232.754 195.153 233.14C195.813 232.379 196.52 231.452 196.3 230.469C196.097 229.559 195.125 228.989 194.194 228.939C193.263 228.889 192.363 229.239 191.497 229.583C189.105 230.534 186.713 231.485 184.322 232.436C184.688 231.485 185.153 230.852 185.618 230.219C186.287 229.308 186.977 228.347 187.136 227.228C187.295 226.109 186.722 224.798 185.623 224.535C184.62 224.295 183.648 224.968 182.835 225.603C179.553 228.168 174.866 231.718 171.904 234.15C173.243 241.543 176.158 247.591 177.406 254.48Z" fill="white" stroke="#010101" stroke-width="1.5" stroke-linecap="round" stroke-linejoin="round"></path>
<path d="M129.727 253.011C126.404 246.757 123.415 240.326 120.774 233.755C120.023 241.735 120 249.784 120.706 257.768C123.887 255.92 127.012 253.975 129.726 253.011H129.727Z" stroke="white" stroke-width="1.5" stroke-linecap="round" stroke-linejoin="round"></path>
<path d="M129.903 252.537C142.987 244.054 156.813 236.716 171.172 230.635C177.882 241.64 182.25 254.115 186.144 262.376C169.753 270.366 156.008 280.253 140.39 289.665" fill="#010101"></path>
<path d="M129.903 252.537C142.987 244.054 156.813 236.716 171.172 230.635C177.882 241.64 182.25 254.115 186.144 262.376C169.753 270.366 156.008 280.253 140.39 289.665" stroke="white" stroke-width="1.5" stroke-linecap="round" stroke-linejoin="round"></path>
<path d="M161.262 163.624C164.189 165.297 167.032 167.382 169.966 169.044C172.923 164.191 175.881 159.337 178.838 154.484" stroke="white" stroke-width="1.5" stroke-linecap="round" stroke-linejoin="round"></path>
<path d="M136.298 168.724C141.975 171.819 150.378 173.917 156.713 175.21C157.113 175.292 158.82 169.629 161.262 163.624" stroke="white" stroke-width="1.5" stroke-linecap="round" stroke-linejoin="round"></path>
<path d="M464.511 317.086L469.793 326.388" stroke="#010101" stroke-width="1.5" stroke-linecap="round" stroke-linejoin="round"></path>
<path d="M31.502 307.163C35.594 304.573 35.336 304.904 39.427 302.314" stroke="#010101" stroke-width="1.5" stroke-linecap="round" stroke-linejoin="round"></path>
<path d="M433.559 66.903L485.792 67.787L479.388 113.711" stroke="#010101" stroke-width="1.5" stroke-linecap="round" stroke-linejoin="round"></path>
<path d="M63.235 81.512C61.898 81.331 60.484 81.978 59.746 83.107C59.008 84.236 58.984 85.791 59.687 86.943C60.938 88.994 64.37 89.091 65.791 87.152C67.211 85.214 66.181 81.91 63.236 81.511L63.235 81.512Z" fill="#010101"></path>
<path d="M467.966 240.698C467.375 240.618 466.749 240.904 466.423 241.403C466.097 241.902 466.086 242.59 466.397 243.099C466.95 244.006 468.468 244.049 469.096 243.192C469.724 242.335 469.269 240.874 467.966 240.698Z" fill="#010101"></path>
<path d="M138.335 395.347C136.998 395.166 135.584 395.813 134.846 396.942C134.108 398.071 134.084 399.626 134.787 400.778C136.038 402.829 139.47 402.926 140.891 400.987C142.311 399.049 141.281 395.745 138.336 395.346L138.335 395.347Z" fill="#010101"></path>
<path d="M259.966 49.518L251.383 48.765L247.951 41.074L244.191 48.635L235.595 49.798L242.309 54.644L240.09 63.812L247.755 59.141L255.625 64.141L253.286 54.937L259.966 49.518Z" fill="#0088CC" stroke="#010101" stroke-width="1.5" stroke-linecap="round" stroke-linejoin="round"></path>
<path d="M290.944 49.518L282.361 48.765L278.928 41.074L275.169 48.635L266.573 49.798L273.287 54.644L271.068 63.812L278.733 59.141L286.602 64.141L284.264 54.937L290.944 49.518Z" fill="#0088CC" stroke="#010101" stroke-width="1.5" stroke-linecap="round" stroke-linejoin="round"></path>
<path d="M321.26 49.518L312.677 48.765L309.244 41.074L305.485 48.635L296.889 49.798L303.603 54.644L301.384 63.812L309.049 59.141L316.918 64.141L314.58 54.937L321.26 49.518Z" fill="#0088CC" stroke="#010101" stroke-width="1.5" stroke-linecap="round" stroke-linejoin="round"></path>
<path d="M352.68 49.518L344.097 48.765L340.664 41.074L336.905 48.635L328.309 49.798L335.023 54.644L332.804 63.812L340.469 59.141L348.338 64.141L346 54.937L352.68 49.518Z" fill="#0088CC" stroke="#010101" stroke-width="1.5" stroke-linecap="round" stroke-linejoin="round"></path>
<path d="M401.723 47.33L387.06 46.042L381.195 32.902L374.772 45.821L360.086 47.809L371.556 56.087L367.765 71.75L380.861 63.769L394.306 72.312L390.31 56.588L401.723 47.33Z" fill="#0088CC" stroke="#010101" stroke-width="1.5" stroke-linecap="round" stroke-linejoin="round"></path>
<path d="M369.831 91.664C367.823 95.208 365.781 98.842 365.082 102.856C364.945 103.64 365.003 104.676 365.756 104.933C366.174 105.076 366.631 104.892 367.016 104.673C370.489 102.698 372.597 96.613 374.642 93.18C372.648 96.912 368.028 105.415 370.167 107.228C373.564 110.108 376.327 98.624 377.578 96.211C376.316 99.311 374.498 103.805 373.676 107.049C373.503 107.732 373.349 108.446 373.485 109.137C373.621 109.828 374.121 110.496 374.816 110.613C375.658 110.754 376.404 110.085 376.953 109.431C378.837 107.182 380.14 104.451 380.703 101.573C380.814 101.006 380.897 100.423 380.814 99.851C380.632 98.599 379.699 97.607 378.794 96.723C377.453 95.412 376.071 94.144 374.651 92.919C373.751 92.143 370.885 89.671 369.832 91.664H369.831Z" fill="white" stroke="#010101" stroke-width="1.5" stroke-linecap="round" stroke-linejoin="round"></path>
<path d="M406.244 0.75C406.645 3.408 407.046 6.065 407.448 8.723Z" fill="white"></path>
<path d="M406.244 0.75C406.645 3.408 407.046 6.065 407.448 8.723" stroke="#010101" stroke-width="1.5" stroke-linecap="round" stroke-linejoin="round"></path>
<path d="M421.799 10.87C423.187 9.33601 426.418 4.31901 427.699 2.69501Z" fill="white"></path>
<path d="M421.799 10.87C423.187 9.33601 426.418 4.31901 427.699 2.69501" stroke="#010101" stroke-width="1.5" stroke-linecap="round" stroke-linejoin="round"></path>
<path d="M430.918 20.2C433.899 18.985 436.916 17.857 439.962 16.818Z" fill="white"></path>
<path d="M430.918 20.2C433.899 18.985 436.916 17.857 439.962 16.818" stroke="#010101" stroke-width="1.5" stroke-linecap="round" stroke-linejoin="round"></path>
<path d="M455.536 144.475C474.43 143.898 497.829 143.32 516.723 142.743Z" fill="#0088CC"></path>
<path d="M455.536 144.475C474.43 143.898 497.829 143.32 516.723 142.743" stroke="#010101" stroke-width="1.5" stroke-linecap="round" stroke-linejoin="round"></path>
<path d="M457.118 157.7C466.607 157.611 504.439 157.727 513.928 157.638Z" fill="#0088CC"></path>
<path d="M457.118 157.7C466.607 157.611 504.439 157.727 513.928 157.638" stroke="#010101" stroke-width="1.5" stroke-linecap="round" stroke-linejoin="round"></path>
<path d="M456.327 171.349C465.025 171.173 473.724 170.998 482.422 170.822Z" fill="#0088CC"></path>
<path d="M456.327 171.349C465.025 171.173 473.724 170.998 482.422 170.822" stroke="#010101" stroke-width="1.5" stroke-linecap="round" stroke-linejoin="round"></path>
<path d="M442.388 173.317C442.005 173.798 441.591 174.249 441.147 174.671C437.342 178.318 431.717 179.762 426.37 179.943C420.978 180.123 415.466 179.199 410.721 176.634C409.337 175.89 408.021 174.987 406.818 173.957C403.9 171.475 401.629 168.249 400.576 164.58C399.388 160.436 399.779 155.94 401.178 151.864C404.75 141.396 416.045 133.56 426.904 135.651C430.213 136.29 436.266 138.087 440.274 142.269C443.117 145.239 445.651 149.751 446.455 153.782C447.816 160.573 446.733 167.927 442.387 173.319L442.388 173.317Z" fill="#FF8C42" stroke="#010101" stroke-width="1.5" stroke-linecap="round" stroke-linejoin="round"></path>
<path d="M441.148 174.671C437.343 178.318 431.718 179.762 426.371 179.943C420.979 180.123 415.467 179.199 410.722 176.634C409.338 175.89 408.022 174.987 406.819 173.957C407.12 173.604 407.436 173.228 407.774 172.821C411.812 167.993 418.144 165.158 424.438 165.361C430.74 165.557 436.876 168.79 440.598 173.874C440.786 174.137 440.974 174.4 441.147 174.671H441.148Z" fill="white" stroke="#010101" stroke-width="1.5" stroke-linecap="round" stroke-linejoin="round"></path>
<path d="M419.392 147.812C417.745 149.194 416.641 151.188 416.292 153.31C416.06 154.721 416.157 156.237 416.871 157.476C417.799 159.085 419.606 159.98 421.395 160.478C423.848 161.16 426.568 161.237 428.857 160.124C432.106 158.543 432.981 155.054 431.997 151.578C431.013 148.102 424.308 143.687 419.392 147.812Z" fill="white" stroke="#010101" stroke-width="1.5" stroke-linecap="round" stroke-linejoin="round"></path>
</g>
<defs>
<clipPath id="clip0_35_1768">
<rect width="532.541" height="425.929" fill="white"></rect>
</clipPath>
</defs>
</svg>