<svg width="24" height="23" viewBox="0 0 24 23" fill="none" xmlns="http://www.w3.org/2000/svg">
<path d="M11.7195 0.0698242C5.24784 0.0698242 0 5.31675 0 11.7893C0 16.9674 3.35799 21.3604 8.01455 22.91C8.60023 23.0185 8.81531 22.6558 8.81531 22.3462C8.81531 22.0668 8.80437 21.1435 8.79941 20.1643C5.53893 20.8732 4.85096 18.7815 4.85096 18.7815C4.31785 17.4269 3.54973 17.0668 3.54973 17.0668C2.48646 16.3394 3.62988 16.3543 3.62988 16.3543C4.80675 16.437 5.42643 17.562 5.42643 17.562C6.47168 19.3537 8.16805 18.8357 8.83682 18.5363C8.94197 17.7788 9.24574 17.2618 9.58086 16.9692C6.97785 16.6727 4.24138 15.6678 4.24138 11.1773C4.24138 9.89784 4.69921 8.85232 5.44895 8.03162C5.32726 7.73639 4.92614 6.54445 5.56246 4.93016C5.56246 4.93016 6.54659 4.61517 8.78617 6.13147C9.72094 5.87173 10.7235 5.74157 11.7195 5.73716C12.7155 5.74157 13.7188 5.87173 14.6554 6.13147C16.8924 4.61517 17.8751 4.93016 17.8751 4.93016C18.513 6.54445 18.1117 7.73639 17.99 8.03162C18.7414 8.85232 19.1961 9.89775 19.1961 11.1773C19.1961 15.6785 16.4545 16.6697 13.8449 16.9598C14.2652 17.3235 14.6397 18.0368 14.6397 19.1301C14.6397 20.6981 14.6261 21.9602 14.6261 22.3462C14.6261 22.6581 14.8371 23.0236 15.4312 22.9085C20.0852 21.3571 23.439 16.9657 23.439 11.7893C23.439 5.31675 18.1918 0.0698242 11.7195 0.0698242Z" fill="#24292F"/>
<path d="M4.38921 16.7641C4.36347 16.8222 4.27174 16.8397 4.18838 16.7998C4.10335 16.7616 4.05556 16.6822 4.08313 16.6237C4.10841 16.5638 4.20014 16.547 4.28498 16.5873C4.37018 16.6255 4.41871 16.7056 4.38921 16.7641ZM4.96569 17.2784C4.90981 17.3302 4.80052 17.3062 4.72635 17.2243C4.64969 17.1426 4.63535 17.0334 4.69207 16.9807C4.7497 16.929 4.85567 16.9531 4.93251 17.0349C5.00917 17.1176 5.02415 17.226 4.96569 17.2784ZM5.3612 17.9365C5.28932 17.9864 5.17186 17.9396 5.09934 17.8354C5.02755 17.7313 5.02755 17.6063 5.1009 17.5562C5.1737 17.5061 5.28932 17.5511 5.36285 17.6545C5.43455 17.7605 5.43464 17.8854 5.3612 17.9365ZM6.02997 18.6988C5.96572 18.7695 5.82895 18.7506 5.72877 18.6539C5.62637 18.5594 5.59779 18.4253 5.66222 18.3545C5.7272 18.2835 5.8648 18.3034 5.96572 18.3993C6.06747 18.4936 6.09844 18.6287 6.02997 18.6988ZM6.89433 18.9561C6.86611 19.0479 6.73431 19.0896 6.60158 19.0506C6.46904 19.0104 6.38228 18.9029 6.40902 18.8102C6.4366 18.7178 6.56895 18.6743 6.70269 18.716C6.83505 18.756 6.9219 18.8627 6.89433 18.9561ZM7.87818 19.0652C7.88149 19.1619 7.76889 19.2421 7.62955 19.2438C7.48938 19.2468 7.37605 19.1686 7.37458 19.0736C7.37458 18.976 7.4846 18.8966 7.62468 18.8943C7.76402 18.8915 7.87818 18.9692 7.87818 19.0652ZM8.84457 19.0282C8.86129 19.1225 8.76442 19.2194 8.62609 19.2451C8.49005 19.2699 8.36413 19.2117 8.34676 19.1183C8.32985 19.0216 8.42856 18.9248 8.56432 18.8997C8.70293 18.8756 8.82692 18.9323 8.84457 19.0282Z" fill="#24292F"/>
</svg>
