<svg width="697" height="163" viewBox="0 0 697 163" fill="none" xmlns="http://www.w3.org/2000/svg">
<path d="M180.088 131.809C178.208 131.809 176.628 131.169 175.348 129.889C174.068 128.609 173.428 127.029 173.428 125.149V38.4893C173.428 36.5293 174.068 34.9293 175.348 33.6893C176.628 32.4493 178.208 31.8293 180.088 31.8293C181.968 31.8293 183.648 32.4493 184.888 33.6893C186.128 34.9293 186.748 36.5293 186.748 38.4893V125.149C186.748 127.029 186.128 128.609 184.888 129.889C183.648 131.169 182.048 131.809 180.088 131.809Z" fill="#0088CC"/>
<path d="M223.988 131.939C222.108 131.939 220.548 131.319 219.318 130.079C218.078 128.839 217.458 127.289 217.458 125.409V68.3193C217.458 66.3593 218.078 64.7793 219.318 63.5793C220.558 62.3893 222.108 61.7894 223.988 61.7894C225.868 61.7894 227.528 62.3893 228.728 63.5793C229.918 64.7793 230.518 66.3493 230.518 68.3193V125.409C230.518 127.289 229.918 128.849 228.728 130.079C227.528 131.319 225.958 131.939 223.988 131.939ZM276.598 131.939C274.718 131.939 273.158 131.319 271.928 130.079C270.688 128.839 270.068 127.289 270.068 125.409V93.9193C270.068 89.0593 269.168 85.0893 267.378 82.0193C265.588 78.9493 263.178 76.6693 260.148 75.1693C257.118 73.6793 253.638 72.9293 249.718 72.9293C246.138 72.9293 242.888 73.6593 239.988 75.1093C237.088 76.5593 234.778 78.4993 233.078 80.9293C231.368 83.3593 230.518 86.1593 230.518 89.3093H222.458C222.458 83.9293 223.758 79.1294 226.358 74.9094C228.958 70.6894 232.518 67.3393 237.048 64.8593C241.568 62.3893 246.648 61.1494 252.278 61.1494C257.908 61.1494 263.438 62.4093 268.088 64.9293C272.738 67.4493 276.408 71.1393 279.098 75.9993C281.788 80.8593 283.128 86.8393 283.128 93.9193V125.409C283.128 127.289 282.508 128.849 281.268 130.079C280.028 131.319 278.468 131.939 276.598 131.939Z" fill="#0088CC"/>
<path d="M319.088 131.809C317.298 131.809 315.738 131.169 314.418 129.889C313.098 128.609 312.438 127.029 312.438 125.149V38.4893C312.438 36.6093 313.098 35.0293 314.418 33.7493C315.738 32.4693 317.298 31.8293 319.088 31.8293C320.878 31.8293 322.548 32.4693 323.828 33.7493C325.108 35.0293 325.748 36.6093 325.748 38.4893V76.8893L368.118 34.5193C369.138 33.4993 370.078 32.7894 370.938 32.4094C371.788 32.0294 372.688 31.8293 373.628 31.8293C375.758 31.8293 377.298 32.4693 378.238 33.7493C379.178 35.0293 379.518 36.5494 379.258 38.2894C378.998 40.0394 378.188 41.6394 376.828 43.0894L344.188 75.8593L377.468 121.169C378.488 122.619 378.918 124.179 378.748 125.839C378.578 127.499 377.978 128.909 376.958 130.059C375.938 131.209 374.568 131.789 372.858 131.789C370.468 131.789 368.638 130.849 367.358 128.969L334.978 85.0693L325.758 94.2894V125.139C325.758 127.019 325.118 128.599 323.838 129.879C322.558 131.159 320.978 131.799 319.098 131.799L319.088 131.809Z" fill="#FF8C42"/>
<path d="M424.438 132.319C418.208 132.319 412.618 130.759 407.668 127.649C402.718 124.539 398.818 120.309 395.958 114.979C393.098 109.649 391.668 103.609 391.668 96.8693C391.668 90.1293 393.228 84.0693 396.338 78.6893C399.448 73.3093 403.678 69.0693 409.008 65.9493C414.338 62.8393 420.338 61.2794 426.988 61.2794C433.638 61.2794 439.618 62.8393 444.908 65.9493C450.198 69.0693 454.398 73.3093 457.518 78.6893C460.628 84.0693 462.188 90.1293 462.188 96.8693H457.198C457.198 103.609 455.768 109.649 452.908 114.979C450.048 120.309 446.148 124.539 441.198 127.649C436.248 130.769 430.658 132.319 424.428 132.319H424.438ZM426.998 120.799C431.348 120.799 435.228 119.759 438.648 117.659C442.058 115.569 444.748 112.709 446.708 109.079C448.668 105.449 449.648 101.379 449.648 96.8593C449.648 92.3393 448.668 88.1393 446.708 84.5093C444.748 80.8793 442.058 78.0293 438.648 75.9293C435.238 73.8393 431.348 72.7894 426.998 72.7894C422.648 72.7894 418.868 73.8393 415.418 75.9293C411.958 78.0193 409.228 80.8793 407.228 84.5093C405.218 88.1393 404.218 92.2493 404.218 96.8593C404.218 101.469 405.218 105.459 407.228 109.079C409.228 112.709 411.968 115.569 415.418 117.659C418.878 119.749 422.738 120.799 426.998 120.799ZM455.668 131.939C453.788 131.939 452.228 131.319 450.998 130.079C449.758 128.839 449.138 127.289 449.138 125.409V105.829L451.568 92.2593L462.188 96.8693V125.409C462.188 127.289 461.568 128.849 460.328 130.079C459.088 131.309 457.528 131.939 455.658 131.939H455.668Z" fill="#FF8C42"/>
<path d="M494.448 131.809C492.398 131.809 490.818 131.279 489.708 130.209C488.598 129.139 488.048 127.539 488.048 125.409V68.1893C488.048 66.1393 488.598 64.5593 489.708 63.4493C490.818 62.3393 492.398 61.7894 494.448 61.7894C496.498 61.7894 498.178 62.3193 499.248 63.3893C500.318 64.4593 500.848 66.0593 500.848 68.1893V125.409C500.848 127.459 500.318 129.039 499.248 130.149C498.178 131.259 496.578 131.809 494.448 131.809ZM494.318 88.0394C494.318 82.9194 495.578 78.3294 498.098 74.2794C500.618 70.2294 504.008 67.0093 508.278 64.6193C512.548 62.2293 517.238 61.0394 522.358 61.0394C527.478 61.0394 531.298 61.8694 533.818 63.5394C536.338 65.1994 537.298 67.1893 536.698 69.4893C536.438 70.6893 535.948 71.5993 535.228 72.2393C534.498 72.8793 533.668 73.2894 532.728 73.4594C531.788 73.6293 530.768 73.5893 529.658 73.3293C524.198 72.2193 519.288 72.1393 514.938 73.0693C510.588 74.0093 507.148 75.7593 504.638 78.3193C502.118 80.8793 500.858 84.1193 500.858 88.0493H494.328L494.318 88.0394Z" fill="#FF8C42"/>
<path d="M584.308 128.999C582.688 129.679 581.168 129.749 579.768 129.189C578.358 128.639 577.228 127.549 576.378 125.929L547.068 70.2493C546.218 68.6293 546.108 67.0694 546.748 65.5794C547.388 64.0894 548.518 62.9993 550.138 62.3193C551.758 61.6393 553.298 61.5693 554.748 62.1293C556.198 62.6893 557.308 63.7694 558.078 65.3894L586.108 121.069C586.958 122.689 587.278 124.249 587.068 125.739C586.858 127.229 585.938 128.319 584.318 128.999H584.308ZM569.198 162.529C568.348 162.529 567.318 162.269 566.128 161.759C562.368 160.049 561.348 157.359 563.058 153.699L602.098 65.5093C603.808 61.9293 606.488 60.8993 610.158 62.4393C613.998 64.0593 615.068 66.7493 613.358 70.4993L574.188 158.559C573.168 161.199 571.498 162.529 569.198 162.529Z" fill="#FF8C42"/>
<path d="M658.668 132.319C652.438 132.319 646.848 130.759 641.898 127.649C636.948 124.539 633.048 120.309 630.188 114.979C627.328 109.649 625.898 103.609 625.898 96.8693C625.898 90.1293 627.458 84.0693 630.568 78.6893C633.678 73.3093 637.908 69.0693 643.238 65.9493C648.568 62.8393 654.568 61.2794 661.218 61.2794C667.868 61.2794 673.848 62.8393 679.138 65.9493C684.428 69.0693 688.628 73.3093 691.748 78.6893C694.858 84.0693 696.418 90.1293 696.418 96.8693H691.428C691.428 103.609 689.998 109.649 687.138 114.979C684.278 120.309 680.378 124.539 675.428 127.649C670.478 130.769 664.888 132.319 658.658 132.319H658.668ZM661.228 120.799C665.578 120.799 669.458 119.759 672.878 117.659C676.288 115.569 678.978 112.709 680.938 109.079C682.898 105.449 683.878 101.379 683.878 96.8593C683.878 92.3393 682.898 88.1393 680.938 84.5093C678.978 80.8793 676.288 78.0293 672.878 75.9293C669.468 73.8393 665.578 72.7894 661.228 72.7894C656.878 72.7894 653.098 73.8393 649.648 75.9293C646.188 78.0193 643.458 80.8793 641.458 84.5093C639.448 88.1393 638.448 92.2493 638.448 96.8593C638.448 101.469 639.448 105.459 641.458 109.079C643.458 112.709 646.198 115.569 649.648 117.659C653.108 119.749 656.968 120.799 661.228 120.799ZM689.908 131.939C688.028 131.939 686.468 131.319 685.238 130.079C683.998 128.839 683.378 127.289 683.378 125.409V105.829L685.808 92.2593L696.428 96.8693V125.409C696.428 127.289 695.808 128.849 694.568 130.079C693.328 131.309 691.768 131.939 689.898 131.939H689.908Z" fill="#FF8C42"/>
<path d="M29.4462 82.8938C22.9071 82.8938 16.3978 82.1289 10.0936 80.6141C6.80402 79.8242 4.77427 76.5146 5.56417 73.225C6.35408 69.9354 9.65867 67.9057 12.9533 68.6956C18.3226 69.9804 23.8719 70.6354 29.4512 70.6354C56.9279 70.6354 82.0848 54.4923 93.5484 29.5104C94.9582 26.4358 98.5977 25.086 101.677 26.4958C104.752 27.9056 106.102 31.5452 104.692 34.6248C98.1778 48.823 87.804 60.8616 74.7007 69.4405C61.2473 78.2444 45.5993 82.8988 29.4512 82.8988L29.4462 82.8938Z" fill="#FF8C42"/>
<path d="M119.31 158.37C119.095 158.37 118.88 158.36 118.665 158.335C88.364 155.17 76.9704 111.801 72.8759 86.2337C72.341 82.8891 74.6157 79.7495 77.9603 79.2146C81.2999 78.6796 84.4445 80.9543 84.9795 84.2989C86.8192 95.7825 90.4088 112.27 97.063 125.579C103.427 138.307 111.126 145.226 119.935 146.146C123.3 146.496 125.744 149.511 125.394 152.881C125.065 156.03 122.405 158.375 119.305 158.375L119.31 158.37Z" fill="#0088CC"/>
<path d="M36.7755 162.829C16.498 162.829 0 146.331 0 126.054C0 105.776 16.498 89.2784 36.7755 89.2784C57.053 89.2784 73.5509 105.776 73.5509 126.054C73.5509 146.331 57.053 162.829 36.7755 162.829ZM36.7755 101.537C23.2571 101.537 12.2585 112.536 12.2585 126.054C12.2585 139.572 23.2571 150.571 36.7755 150.571C50.2938 150.571 61.2925 139.572 61.2925 126.054C61.2925 112.536 50.2938 101.537 36.7755 101.537Z" fill="#0088CC"/>
<path d="M36.7755 64.766C45.2382 64.766 52.0986 57.9056 52.0986 49.4429C52.0986 40.9802 45.2382 34.1198 36.7755 34.1198C28.3128 34.1198 21.4524 40.9802 21.4524 49.4429C21.4524 57.9056 28.3128 64.766 36.7755 64.766Z" fill="#0088CC"/>
<path d="M115.556 12.7875L111.211 14.0174L111.041 18.5318C110.966 20.4666 108.462 21.1765 107.382 19.5667L104.867 15.8122L100.523 17.042C98.658 17.5719 97.2082 15.4022 98.408 13.8824L101.198 10.3328L98.683 6.5783C97.6031 4.9685 99.2179 2.91875 101.033 3.58867L105.272 5.14847L108.062 1.59891C109.262 0.0740978 111.706 0.973992 111.631 2.90875L111.461 7.4232L115.701 8.983C117.521 9.65292 117.421 12.2576 115.556 12.7825V12.7875Z" fill="#FF8C42"/>
</svg>
