<svg width="23" height="23" viewBox="0 0 23 23" fill="none" xmlns="http://www.w3.org/2000/svg">
<path d="M0.000488281 1.64797C0.000488281 0.738613 0.761792 0.000488281 1.70026 0.000488281H21.2997C22.2386 0.000488281 22.9995 0.738613 22.9995 1.64797V21.3523C22.9995 22.2619 22.2386 22.9995 21.2997 22.9995H1.70026C0.761882 22.9995 0.000488281 22.262 0.000488281 21.3526V1.64797Z" fill="#0A66C2"/>
<path d="M6.98971 19.2475V8.89322H3.54812V19.2475H6.98971ZM5.26963 7.47977C6.46953 7.47977 7.21655 6.68469 7.21655 5.69106C7.19409 4.67479 6.46953 3.90189 5.29245 3.90189C4.11456 3.90189 3.34526 4.67479 3.34526 5.69097C3.34526 6.6846 4.09201 7.47968 5.24708 7.47968L5.26963 7.47977ZM8.89467 19.2475H12.336V13.4658C12.336 13.1568 12.3585 12.8469 12.4494 12.6262C12.698 12.0076 13.2643 11.3673 14.2153 11.3673C15.4603 11.3673 15.9586 12.3168 15.9586 13.7088V19.2475H19.3998V13.3107C19.3998 10.1304 17.7022 8.65047 15.438 8.65047C13.5816 8.65047 12.7663 9.68803 12.3134 10.3947H12.3363V8.89358H8.89485C8.93977 9.86493 8.89467 19.2475 8.89467 19.2475Z" fill="white"/>
</svg>
