<svg width="410" height="534" viewBox="0 0 410 534" fill="none" xmlns="http://www.w3.org/2000/svg">
<path d="M96.08 272.899C74.74 272.899 53.49 270.399 32.92 265.469C22.18 262.899 15.56 252.099 18.13 241.359C20.7 230.619 31.5 223.999 42.24 226.569C59.76 230.769 77.87 232.899 96.07 232.899C185.73 232.899 267.83 180.219 305.24 98.6993C309.85 88.6593 321.72 84.2593 331.76 88.8593C341.8 93.4693 346.2 105.339 341.6 115.379C320.34 161.719 286.5 200.999 243.73 228.979C199.82 257.709 148.77 272.899 96.08 272.899Z" fill="#FF8C42"/>
<path d="M389.32 519.199C388.63 519.199 387.92 519.159 387.22 519.089C288.33 508.759 251.16 367.249 237.8 283.809C236.05 272.899 243.48 262.649 254.39 260.899C265.29 259.159 275.55 266.579 277.3 277.489C283.3 314.969 295.01 368.759 316.74 412.199C337.52 453.729 362.63 476.309 391.37 479.319C402.36 480.469 410.33 490.299 409.18 501.289C408.11 511.569 399.43 519.209 389.31 519.209L389.32 519.199Z" fill="#0088CC"/>
<path d="M120 533.749C53.83 533.749 0 479.919 0 413.749C0 347.579 53.83 293.749 120 293.749C186.17 293.749 240 347.579 240 413.749C240 479.919 186.17 533.749 120 533.749ZM120 333.749C75.89 333.749 40 369.639 40 413.749C40 457.859 75.89 493.749 120 493.749C164.11 493.749 200 457.859 200 413.749C200 369.639 164.11 333.749 120 333.749Z" fill="#0088CC"/>
<path d="M120 213.749C147.614 213.749 170 191.364 170 163.749C170 136.135 147.614 113.749 120 113.749C92.3858 113.749 70 136.135 70 163.749C70 191.364 92.3858 213.749 120 213.749Z" fill="#0088CC"/>
<path d="M384.55 42.0193L362.89 48.1593L362.03 70.6593C361.88 74.5293 356.87 75.9493 354.71 72.7293L342.18 54.0293L320.52 60.1693C316.79 61.2293 313.89 56.8893 316.29 53.8493L330.21 36.1493L317.68 17.4493C315.52 14.2293 318.75 10.1293 322.38 11.4693L343.51 19.2393L357.43 1.53932C359.83 -1.51068 364.72 0.289318 364.57 4.15932L363.71 26.6593L384.84 34.4293C388.48 35.7693 388.28 40.9793 384.55 42.0293V42.0193Z" fill="#FF8C42"/>
</svg>
