<svg width="281" height="163" viewBox="0 0 281 163" fill="none" xmlns="http://www.w3.org/2000/svg">
<g clip-path="url(#clip0_183_1264)">
<mask id="mask0_183_1264" style="mask-type:luminance" maskUnits="userSpaceOnUse" x="0" y="0" width="281" height="163">
<path d="M280.885 0H0V162.35H280.885V0Z" fill="white"/>
</mask>
<g mask="url(#mask0_183_1264)">
<path d="M49.4651 15.535C57.9411 14.499 61.9521 8.113 62.9581 0.75C62.2391 7.09 66.7771 13.613 73.5851 16.024C70.0991 16.195 67.0141 18.276 65.2271 20.874C63.4401 23.472 62.7741 26.531 62.4461 29.542C62.2591 22.079 57.7621 15.349 49.4651 15.535Z" stroke="#010101" stroke-width="1.5" stroke-linecap="round" stroke-linejoin="round"/>
<path d="M248.537 114.416C259.641 113.059 264.895 104.693 266.214 95.0469C265.273 103.353 271.217 111.898 280.135 115.057C275.569 115.281 271.526 118.007 269.185 121.41C266.844 124.813 265.972 128.821 265.542 132.765C265.297 122.989 259.406 114.172 248.536 114.415L248.537 114.416Z" stroke="#010101" stroke-width="1.5" stroke-linecap="round" stroke-linejoin="round"/>
<path d="M71.344 72.0931C93.614 54.0661 157.204 4.3501 157.204 4.3501C157.204 4.3501 212.215 50.6151 234.888 68.6021C228.859 75.6771 221.748 76.7711 214.409 82.4761C193.999 98.3421 173.589 114.207 153.179 130.073C151.906 131.063 150.508 132.098 148.896 132.121C147.887 132.135 146.922 131.744 145.992 131.352C119.253 120.077 94.02 102.388 71.344 72.0931Z" fill="#E3E3FF" stroke="#010101" stroke-width="1.5" stroke-linecap="round" stroke-linejoin="round"/>
<path d="M95.853 126.798C95.727 124.163 105.412 1.89711 105.412 1.89711L218.556 1.53711L209.835 127.286C209.835 127.286 95.863 126.113 95.853 126.799V126.798Z" fill="white" stroke="#010101" stroke-width="1.5" stroke-linecap="round" stroke-linejoin="round"/>
<path d="M71.3439 72.0931C69.7839 106.545 69.1119 127.09 66.6919 161.568C103.001 161.568 226.342 161.509 226.342 161.509C226.342 161.509 231.481 113.858 234.887 68.6021C200.851 88.3261 189.377 94.3881 156.31 115.448C133.986 106.149 78.9509 73.2131 71.3429 72.0941L71.3439 72.0931Z" fill="#0088CC" stroke="#010101" stroke-width="1.5" stroke-linecap="round" stroke-linejoin="round"/>
<path d="M117.372 26.9511C125.138 26.8451 132.904 26.7381 140.671 26.6321" stroke="#010101" stroke-width="1.5" stroke-linecap="round" stroke-linejoin="round"/>
<path d="M117.171 46.426C145.175 47.318 173.205 47.417 201.215 46.725" stroke="#010101" stroke-width="1.5" stroke-linecap="round" stroke-linejoin="round"/>
<path d="M116.171 64.817C144.37 63.707 172.592 63.204 200.813 63.308" stroke="#010101" stroke-width="1.5" stroke-linecap="round" stroke-linejoin="round"/>
<path d="M114.387 83.3289C143.578 82.1399 172.794 81.5529 202.009 81.5669" stroke="#010101" stroke-width="1.5" stroke-linecap="round" stroke-linejoin="round"/>
<path d="M83.289 47.179C58.623 49.276 25.133 50.468 0.75 50.718C1.088 63.428 0.398 76.555 1.802 89.574C24.816 88.191 46.801 88.685 70.341 88.058C73.991 90.784 78.338 92.534 83.107 94.674C83.503 78.652 83.77 65.24 83.289 47.179Z" fill="#FF8C42" stroke="#010101" stroke-width="1.5" stroke-linecap="round" stroke-linejoin="round"/>
<path d="M11.2971 76.7419C9.92609 74.0169 10.2161 70.6329 11.6611 67.9469C13.1061 65.2609 15.5941 63.2369 18.3501 61.9299C22.4141 60.0019 27.8281 59.7849 30.9101 63.0619C32.8131 65.0849 33.4321 68.0449 33.2421 70.8149C33.1571 72.0489 32.9051 73.3269 32.1391 74.2969C31.3721 75.2669 29.9721 75.8229 28.8511 75.2999C27.8871 74.8509 27.3821 73.7549 27.2441 72.7009C26.8951 70.0259 28.4031 67.4519 30.1971 65.4379C32.4891 62.8629 35.8801 60.6799 39.2121 61.5599C42.6691 62.4729 44.4801 66.1709 45.8551 69.4719C46.5121 66.9599 47.6711 63.9749 50.2421 63.6109C53.3261 63.1749 55.5021 66.9429 58.5901 67.3509C60.4951 67.6029 62.2841 66.5259 64.0921 65.8749C67.2491 64.7389 70.8551 64.9109 73.8891 66.3429" stroke="#010101" stroke-width="1.5" stroke-linecap="round" stroke-linejoin="round"/>
<path d="M84.133 161.473C80.308 152.683 76.48 143.156 72.655 134.365C69.977 128.211 66.994 121.692 61.316 118.114C58.253 116.184 53.976 115.396 51.157 117.668C49.175 119.265 48.437 121.924 47.991 124.43C45.767 136.928 48.178 150.198 55.389 161.34C65.092 161.831 71.346 161.473 84.133 161.473Z" fill="#55D087" stroke="#010101" stroke-width="1.5" stroke-linecap="round" stroke-linejoin="round"/>
<path d="M55.397 120.653C59.495 134.352 63.473 148.201 68.002 161.098" stroke="#010101" stroke-width="1.5" stroke-linecap="round" stroke-linejoin="round"/>
<path d="M60.868 161.568C57.276 154.431 53.675 147.277 49.329 140.572C46.201 135.746 42.417 130.948 37.063 128.849C35.17 128.107 32.972 127.753 31.142 128.637C29.071 129.637 27.977 131.984 27.625 134.256C26.86 139.196 28.841 144.128 31.104 148.585C33.243 152.798 35.674 156.864 39.297 161.082C48.052 161.244 54.246 161.446 60.868 161.568Z" fill="#55D087" stroke="#010101" stroke-width="1.5" stroke-linecap="round" stroke-linejoin="round"/>
<path d="M33.4529 130.114C38.0019 140.59 43.2899 150.745 49.2659 160.479" stroke="#010101" stroke-width="1.5" stroke-linecap="round" stroke-linejoin="round"/>
</g>
</g>
<defs>
<clipPath id="clip0_183_1264">
<rect width="281" height="163" fill="white"/>
</clipPath>
</defs>
</svg>
