<svg width="233" height="156" viewBox="0 0 233 156" fill="none" xmlns="http://www.w3.org/2000/svg">
<g clip-path="url(#clip0_183_1262)">
<mask id="mask0_183_1262" style="mask-type:luminance" maskUnits="userSpaceOnUse" x="0" y="0" width="233" height="156">
<path d="M232.494 0H0V155.99H232.494V0Z" fill="white"/>
</mask>
<g mask="url(#mask0_183_1262)">
<path d="M213.688 16.4099C219.093 15.6469 223.691 10.9459 224.333 5.5249C223.875 10.1929 226.768 14.9939 231.109 16.7699C228.886 16.8959 226.919 18.4279 225.779 20.3399C224.64 22.2529 224.215 24.5049 224.006 26.7209C223.887 21.2269 218.979 16.2729 213.688 16.4099Z" stroke="#010101" stroke-width="1.5" stroke-linecap="round" stroke-linejoin="round"/>
<path d="M7.77295 85.6941C13.1779 84.9311 17.7759 80.2301 18.4179 74.8091C17.9599 79.4771 20.8529 84.2781 25.1939 86.0541C22.9709 86.1801 21.0039 87.7121 19.8639 89.6241C18.7249 91.5371 18.2999 93.7891 18.0909 96.0051C17.9719 90.5111 13.0639 85.5571 7.77295 85.6941Z" stroke="#010101" stroke-width="1.5" stroke-linecap="round" stroke-linejoin="round"/>
<path d="M71.1942 100.591L46.7532 152.729L57.6902 152.709L81.2482 106.386L71.1942 100.591Z" fill="#010101" stroke="#010101" stroke-width="1.5" stroke-linecap="round" stroke-linejoin="round"/>
<path d="M123.027 132.037L119.432 155.24L129.606 155.162L132.976 131.845L123.027 132.037Z" fill="#010101" stroke="#010101" stroke-width="1.5" stroke-linecap="round" stroke-linejoin="round"/>
<path d="M68.22 152.478C62.886 143.228 63.33 142.163 57.996 132.914C54.262 126.439 50.121 119.581 42.719 115.87C38.726 113.868 33.255 113.09 29.8 115.53C21.739 121.222 28.725 136.274 36.848 152.459C49.191 152.852 53.595 152.478 68.22 152.478Z" fill="#55D087" stroke="#010101" stroke-width="1.5" stroke-linecap="round" stroke-linejoin="round"/>
<path d="M35.345 118.631C39.87 132.702 43.551 138.893 50.003 152.478" stroke="#010101" stroke-width="1.5" stroke-linecap="round" stroke-linejoin="round"/>
<path d="M39.879 152.478C30.735 138.61 24.951 129.669 12.488 125.791C10.045 125.031 7.23603 124.684 4.96103 125.644C2.38703 126.729 0.398025 129.211 0.803025 131.634C2.35803 140.927 7.88503 146.053 11.332 152.761C22.453 152.819 31.468 152.435 39.879 152.478Z" fill="#55D087" stroke="#010101" stroke-width="1.5" stroke-linecap="round" stroke-linejoin="round"/>
<path d="M7.97607 127.177C14.3211 138.201 15.8391 141.774 23.9541 151.994" stroke="#010101" stroke-width="1.5" stroke-linecap="round" stroke-linejoin="round"/>
<path d="M145.573 119.137C156.555 109.948 167.536 100.76 179.108 92.5629C187.461 95.8149 195.47 99.8389 203.414 104.957C210.331 93.8609 218.175 83.2709 226.853 73.3159" stroke="#010101" stroke-width="1.5" stroke-linecap="round" stroke-linejoin="round"/>
<path d="M211.951 75.2079C216.95 74.2029 221.949 73.1979 226.949 72.1929C227.808 76.2929 228.424 80.4379 228.792 84.6019" stroke="#010101" stroke-width="1.5" stroke-linecap="round" stroke-linejoin="round"/>
<path d="M150.672 126.52C150.438 134.838 150.501 143.162 150.86 151.476C154.002 151.678 157.144 151.88 160.286 152.082C160.728 143.481 160.652 134.857 160.057 126.265C157.097 126.717 154.046 126.64 150.672 126.52Z" fill="#0088CC" stroke="#010101" stroke-width="1.5" stroke-linecap="round" stroke-linejoin="round"/>
<path d="M172.512 111.637C173.122 125.092 173.732 138.547 174.342 152.002C178.303 151.844 182.264 151.685 186.225 151.527C185.163 138.224 184.101 124.921 183.04 111.618C179.314 111.664 175.589 111.71 172.512 111.637Z" fill="#0088CC" stroke="#010101" stroke-width="1.5" stroke-linecap="round" stroke-linejoin="round"/>
<path d="M198.55 125.607C197.927 134.392 198.065 143.224 198.964 151.988C201.877 151.813 204.79 151.638 207.704 151.463C207.9 151.451 208.114 151.433 208.256 151.306C208.425 151.156 208.432 150.91 208.428 150.692C208.27 142.039 208.112 133.385 207.954 124.732C204.889 124.955 201.824 125.178 198.55 125.607Z" fill="#0088CC" stroke="#010101" stroke-width="1.5" stroke-linecap="round" stroke-linejoin="round"/>
<path d="M220.736 151.118C220.222 132.094 220.091 113.061 221.427 94.7528C224.658 94.5358 227.89 94.3188 231.121 94.1008C232.419 113.254 230.963 132.089 231.744 151.266C228.297 151.031 227.323 151.424 220.736 151.118Z" fill="#0088CC" stroke="#010101" stroke-width="1.5" stroke-linecap="round" stroke-linejoin="round"/>
<path d="M51.0741 42.4009C42.2481 67.8339 45.0041 97.2719 63.7581 118.266C82.5121 139.26 118.435 148.956 145.674 136.828C173.376 124.494 185.022 94.1399 181.456 67.3059C178.408 44.3759 165.429 21.8519 143.505 8.77492C121.581 -4.30208 68.0561 -6.53308 51.0741 42.4009Z" fill="#FF8C42" stroke="#010101" stroke-width="1.5" stroke-linecap="round" stroke-linejoin="round"/>
<path d="M68.679 50.5029C62.316 68.8389 64.303 90.0619 77.823 105.198C91.343 120.334 117.242 127.324 136.879 118.58C156.85 109.688 165.247 87.8049 162.675 68.4579C160.478 51.9269 151.121 35.6879 135.315 26.2599C119.509 16.8319 80.921 15.2239 68.678 50.5019L68.679 50.5029Z" fill="white" stroke="#010101" stroke-width="1.5" stroke-linecap="round" stroke-linejoin="round"/>
<path d="M85.6781 58.331C81.6931 69.814 82.9371 83.105 91.4051 92.584C99.8721 102.063 116.092 106.441 128.39 100.965C140.897 95.396 146.156 81.692 144.545 69.576C143.169 59.223 137.309 49.053 127.41 43.149C117.511 37.245 93.3451 36.238 85.6781 58.331Z" fill="#FF8C42" stroke="#010101" stroke-width="1.5" stroke-linecap="round" stroke-linejoin="round"/>
<path d="M102.833 66.227C101.248 70.795 101.743 76.081 105.111 79.852C108.479 83.622 114.931 85.364 119.822 83.186C124.797 80.971 126.889 75.52 126.248 70.7C125.701 66.582 123.37 62.537 119.432 60.188C115.495 57.839 105.883 57.439 102.833 66.227Z" fill="white" stroke="#010101" stroke-width="1.5" stroke-linecap="round" stroke-linejoin="round"/>
<path d="M169.826 35.1758C170.375 32.5748 171.342 28.5118 171.891 25.9118C171.98 25.4888 172.076 25.0518 172.328 24.7008C172.575 24.3588 172.947 24.1328 173.309 23.9158C177.647 21.3188 181.985 18.7208 186.322 16.1238C185.71 19.0718 185.204 22.0418 184.807 25.0268C187.443 25.4608 190.078 25.8948 192.714 26.3298C188.72 30.1548 179.505 36.3078 179.505 36.3078C179.505 36.3078 172.594 35.9108 169.826 35.1758Z" fill="#0088CC" stroke="#010101" stroke-width="1.5" stroke-linecap="round" stroke-linejoin="round"/>
<path d="M117.476 72.1931C137.741 57.7461 158.006 43.2991 178.271 28.8521" stroke="#010101" stroke-width="1.5" stroke-linecap="round" stroke-linejoin="round"/>
<path d="M117.122 70.1011C116.912 71.1591 116.716 72.3201 117.232 73.2671C117.675 74.0811 118.564 74.5581 119.456 74.8091" stroke="#010101" stroke-width="1.5" stroke-linecap="round" stroke-linejoin="round"/>
</g>
</g>
<defs>
<clipPath id="clip0_183_1262">
<rect width="233" height="156" fill="white"/>
</clipPath>
</defs>
</svg>
